<svg width="33" height="38" viewBox="0 0 33 38" fill="none" xmlns="http://www.w3.org/2000/svg">
<path d="M4.71429 4H3.96429V4.75V14.25V15H4.71429H28.2857H29.0357V14.25V4.75V4H28.2857H4.71429ZM4.71429 18.25H3.96429V19V23.75V24.5H4.71429H9.42857H10.1786V23.75V19V18.25H9.42857H4.71429ZM4.71429 27.75H3.96429V28.5V33.25V34H4.71429H9.42857H10.1786V33.25V28.5V27.75H9.42857H4.71429ZM14.1429 18.25H13.3929V19V23.75V24.5H14.1429H18.8571H19.6071V23.75V19V18.25H18.8571H14.1429ZM14.1429 27.75H13.3929V28.5V33.25V34H14.1429H18.8571H19.6071V33.25V28.5V27.75H18.8571H14.1429ZM23.5714 18.25H22.8214V19V33.25V34H23.5714H28.2857H29.0357V33.25V19V18.25H28.2857H23.5714ZM32.25 37.25H0.75V0.75H32.25V37.25Z" stroke="#1D262F" stroke-opacity="0.79" stroke-width="1.5"/>
</svg>
